<svg width="16" height="16" viewBox="0 0 16 16" fill="none" xmlns="http://www.w3.org/2000/svg">
<path d="M0 8C0 8 0 8 0 8C0 10.1217 0.842855 12.1566 2.34315 13.6569C3.84344 15.1571 5.87827 16 8 16C10.1217 16 12.1566 15.1571 13.6569 13.6569C15.1571 12.1566 16 10.1217 16 8C16 5.87827 15.1571 3.84344 13.6569 2.34315C12.1566 0.842855 10.1217 0 8 0C5.87827 0 3.84344 0.842855 2.34315 2.34315C0.842855 3.84344 0 5.87827 0 8C0 8 0 8 0 8Z" fill="#FE815F"/>
<path d="M5.43261 8.45501C5.09553 8.53937 4.84276 8.62361 4.58992 8.70791C4.42131 8.79215 4.25284 8.96069 4.16854 9.12929C4.08424 9.29776 4 9.55054 4 9.80344C4 10.1405 4.08424 10.4776 4.33708 10.7304C4.58992 10.9832 4.84269 11.0674 5.26401 11.0674C5.51691 11.0674 5.68539 10.9832 5.93816 10.899C6.10676 10.8146 6.35954 10.6461 6.52802 10.4776V10.6461C6.52802 10.8145 6.61232 10.899 6.61232 10.9832H7.62361C7.53931 10.8146 7.45507 10.5618 7.45507 10.3934C7.45507 10.2248 7.37077 9.97198 7.37077 9.5506V8.20223C7.37077 7.69668 7.2866 7.3596 7.2023 7.191C7.118 7.0224 6.94946 6.85386 6.69674 6.76969C6.61244 6.60115 6.19107 6.51685 5.76975 6.51685C5.26414 6.51685 4.92706 6.60108 4.67422 6.85386C4.42144 7.0224 4.16867 7.35954 4.08436 7.78085L5.0113 7.94939C5.0956 7.78085 5.17983 7.61225 5.26413 7.52801C5.34837 7.44371 5.51704 7.44371 5.68551 7.44371C5.93829 7.44371 6.10689 7.52801 6.27537 7.61225C6.3596 7.69655 6.44391 7.86509 6.44391 8.11787V8.20223C6.191 8.20223 5.85392 8.28647 5.43261 8.45501ZM6.35954 9.12922V9.71908C6.35954 9.88755 6.2753 9.97185 6.10676 10.0561C5.93816 10.2246 5.76962 10.2246 5.60109 10.2246C5.43261 10.2246 5.26401 10.1403 5.17977 10.0561C5.09547 9.97185 5.01123 9.80332 5.01123 9.63471C5.01123 9.46624 5.09553 9.38194 5.17977 9.21346C5.26401 9.21346 5.51691 9.12922 5.76962 9.04486C6.02246 8.96062 6.27524 8.96062 6.35948 8.87638V9.12922H6.35954ZM8.382 5H9.3933V10.8988H8.382V5ZM10.4887 5H11.5V10.8988H10.4887V5Z" fill="white"/>
</svg>
