<svg width="26" height="25" viewBox="0 0 26 25" fill="none" xmlns="http://www.w3.org/2000/svg">
<path d="M13 0C11.2928 0 9.60235 0.331349 8.02512 0.975129C6.44788 1.61891 5.01477 2.56251 3.80761 3.75206C1.36964 6.15447 0 9.41282 0 12.8103C0 18.4725 3.731 23.2764 8.892 24.9802C9.542 25.0826 9.75 24.6855 9.75 24.3396C9.75 24.045 9.75 23.238 9.75 22.1747C6.149 22.9433 5.382 20.4581 5.382 20.4581C4.784 18.9721 3.939 18.575 3.939 18.575C2.756 17.7807 4.03 17.8064 4.03 17.8064C5.33 17.896 6.019 19.1258 6.019 19.1258C7.15 21.073 9.061 20.4965 9.802 20.1891C9.919 19.3564 10.257 18.7928 10.621 18.4725C7.735 18.1522 4.706 17.0506 4.706 12.1698C4.706 10.7479 5.2 9.60775 6.045 8.69822C5.915 8.37796 5.46 7.04569 6.175 5.31629C6.175 5.31629 7.267 4.97041 9.75 6.62294C10.777 6.34112 11.895 6.2002 13 6.2002C14.105 6.2002 15.223 6.34112 16.25 6.62294C18.733 4.97041 19.825 5.31629 19.825 5.31629C20.54 7.04569 20.085 8.37796 19.955 8.69822C20.8 9.60775 21.294 10.7479 21.294 12.1698C21.294 17.0634 18.252 18.1394 15.353 18.4597C15.821 18.8568 16.25 19.6382 16.25 20.8296C16.25 22.5462 16.25 23.9297 16.25 24.3396C16.25 24.6855 16.458 25.0955 17.121 24.9802C22.282 23.2636 26 18.4725 26 12.8103C26 11.1281 25.6637 9.46225 25.0104 7.90803C24.3571 6.35381 23.3995 4.94161 22.1924 3.75206C20.9852 2.56251 19.5521 1.61891 17.9749 0.975129C16.3977 0.331349 14.7072 0 13 0Z" fill="#8F8F8F"/>
</svg>
