<svg width="24" height="25" viewBox="0 0 24 25" fill="none" xmlns="http://www.w3.org/2000/svg">
<path d="M21.3333 0C22.0406 0 22.7189 0.292658 23.219 0.813592C23.719 1.33453 24 2.04107 24 2.77778V22.2222C24 22.9589 23.719 23.6655 23.219 24.1864C22.7189 24.7073 22.0406 25 21.3333 25H2.66667C1.95942 25 1.28115 24.7073 0.781048 24.1864C0.280951 23.6655 0 22.9589 0 22.2222V2.77778C0 2.04107 0.280951 1.33453 0.781048 0.813592C1.28115 0.292658 1.95942 0 2.66667 0H21.3333ZM20.6667 21.5278V14.1667C20.6667 12.9658 20.2087 11.8142 19.3936 10.965C18.5784 10.1159 17.4728 9.63889 16.32 9.63889C15.1867 9.63889 13.8667 10.3611 13.2267 11.4444V9.90278H9.50667V21.5278H13.2267V14.6806C13.2267 13.6111 14.0533 12.7361 15.08 12.7361C15.5751 12.7361 16.0499 12.941 16.3999 13.3056C16.75 13.6703 16.9467 14.1649 16.9467 14.6806V21.5278H20.6667ZM5.17333 7.72222C5.76742 7.72222 6.33717 7.47639 6.75725 7.03881C7.17733 6.60122 7.41333 6.00773 7.41333 5.38889C7.41333 4.09722 6.41333 3.04167 5.17333 3.04167C4.57571 3.04167 4.00257 3.28896 3.57999 3.72915C3.1574 4.16934 2.92 4.76637 2.92 5.38889C2.92 6.68056 3.93333 7.72222 5.17333 7.72222ZM7.02667 21.5278V9.90278H3.33333V21.5278H7.02667Z" fill="#8F8F8F"/>
</svg>
