<svg width="24" height="25" viewBox="0 0 24 25" fill="none" xmlns="http://www.w3.org/2000/svg">
<path fill-rule="evenodd" clip-rule="evenodd" d="M2.3894 0.0728275C1.4933 0.284985 0.6895 0.945232 0.289 1.79826C0.03215 2.34525 0 2.65592 0 4.59019V6.3433H2.375H4.75V14.3788C4.75 23.2861 4.72765 22.6775 5.07895 23.3315C5.505 24.1246 6.24645 24.6998 7.123 24.9174C7.5657 25.0272 21.1105 25.0277 21.5877 24.9179C22.4955 24.7089 23.3052 24.0541 23.7031 23.2073C23.9674 22.6447 24 22.3369 24 20.4046V18.6451H22.375H20.75L20.7493 10.6514C20.7484 1.77741 20.7707 2.37019 20.4113 1.65688C20.2794 1.39508 20.1197 1.18512 19.8509 0.919994C19.4183 0.493287 18.9942 0.244223 18.451 0.0978705C18.0803 -0.00200866 18.0093 -0.00283855 10.376 0.00116443C3.99695 0.00453279 2.626 0.0168346 2.3894 0.0728275ZM3.71305 1.58722C4.0555 1.70116 4.4052 2.02945 4.5776 2.3989C4.719 2.70181 4.72145 2.72246 4.7411 3.76821L4.761 4.82998H3.1555H1.55V3.78095C1.55 2.86988 1.56245 2.6999 1.64465 2.48872C1.96165 1.67412 2.83285 1.29442 3.71305 1.58722ZM18.2122 1.57595C18.5632 1.70902 18.908 2.03609 19.0795 2.3989L19.225 2.70644L19.2385 10.6758L19.2521 18.6451H14.3533H9.4545L9.43975 20.488C9.4252 22.3043 9.4233 22.3345 9.3071 22.5853C9.16655 22.8888 8.78995 23.2486 8.46085 23.3936C8.13365 23.5378 7.56635 23.5378 7.23915 23.3936C6.91005 23.2486 6.53345 22.8888 6.3929 22.5853L6.275 22.3308L6.25 12.3722L6.225 2.41354L6.1088 2.09623C6.0449 1.92171 5.94975 1.70712 5.8974 1.61934L5.80225 1.45971L11.8886 1.47289C17.6636 1.48534 17.9872 1.49061 18.2122 1.57595ZM8.5 4.34181V5.07406H10.625H12.75V4.34181V3.60956H10.625H8.5V4.34181ZM15.5 4.34181V5.07406H16.25H17V4.34181V3.60956H16.25H15.5V4.34181ZM8.5 7.19759V7.95425H12.75H17V7.19759V6.44093H12.75H8.5V7.19759ZM8.5 10.0534V10.7856H12.75H17V10.0534V9.32112H12.75H8.5V10.0534ZM8.5 12.9092V13.6658H12.75H17V12.9092V12.1525H12.75H8.5V12.9092ZM8.5 15.7649V16.4972H12.75H17V15.7649V15.0327H12.75H8.5V15.7649ZM22.45 21.2075C22.45 22.1247 22.4379 22.2876 22.3538 22.5039C22.2066 22.8821 21.9476 23.1561 21.5623 23.3413L21.2271 23.5024L15.8886 23.5157C12.9524 23.523 10.55 23.5168 10.55 23.5019C10.55 23.4869 10.6046 23.3696 10.6713 23.241C10.9102 22.7806 10.95 22.5019 10.95 21.2864V20.1584H16.7H22.45V21.2075Z" fill="#4B4B4B"/>
</svg>
