<svg width="30" height="31" viewBox="0 0 30 31" fill="none" xmlns="http://www.w3.org/2000/svg">
<path d="M11.1429 0C14.0981 0 16.9324 1.21311 19.022 3.37246C21.1117 5.5318 22.2857 8.46051 22.2857 11.5143C22.2857 14.3663 21.2743 16.988 19.6114 19.0074L20.0743 19.4857H21.4286L30 28.3429L27.4286 31L18.8571 22.1429V20.7434L18.3943 20.2651C16.44 21.9834 13.9029 23.0286 11.1429 23.0286C8.18759 23.0286 5.35336 21.8155 3.26367 19.6561C1.17398 17.4968 0 14.5681 0 11.5143C0 8.46051 1.17398 5.5318 3.26367 3.37246C5.35336 1.21311 8.18759 0 11.1429 0ZM11.1429 3.54286C6.85714 3.54286 3.42857 7.08571 3.42857 11.5143C3.42857 15.9429 6.85714 19.4857 11.1429 19.4857C15.4286 19.4857 18.8571 15.9429 18.8571 11.5143C18.8571 7.08571 15.4286 3.54286 11.1429 3.54286Z" fill="#4B4B4B"/>
</svg>
