<svg width="30" height="30" viewBox="0 0 30 30" fill="none" xmlns="http://www.w3.org/2000/svg">
<path fill-rule="evenodd" clip-rule="evenodd" d="M29.9179 14.5185C29.9179 22.5369 23.4177 29.037 15.3994 29.037C7.38102 29.037 0.880859 22.5369 0.880859 14.5185C0.880859 6.50016 7.38102 0 15.3994 0C23.4177 0 29.9179 6.50016 29.9179 14.5185ZM10.7396 15.7498L7.19634 14.5954C7.19634 14.5954 6.77288 14.4236 6.90923 14.034C6.9373 13.9537 6.99392 13.8853 7.16331 13.7678C7.9484 13.2206 21.6947 8.27983 21.6947 8.27983C21.6947 8.27983 22.0828 8.14904 22.3117 8.23603C22.3683 8.25356 22.4193 8.28582 22.4593 8.3295C22.4994 8.37319 22.5272 8.42673 22.5398 8.48466C22.5645 8.58697 22.5748 8.69224 22.5705 8.79741C22.5698 8.85314 22.5654 8.90638 22.5602 8.96966L22.5602 8.96975L22.5602 8.96982C22.5569 9.0098 22.5533 9.0538 22.55 9.10496C22.4663 10.4558 19.9609 20.5374 19.9609 20.5374C19.9609 20.5374 19.811 21.1274 19.2739 21.1476C19.1419 21.1519 19.0105 21.1295 18.8873 21.0819C18.7641 21.0342 18.6518 20.9623 18.5571 20.8703C17.9915 20.3838 16.6803 19.4533 15.4622 18.6122C15.0936 18.9221 14.3582 19.5583 13.6 20.3167C12.5234 21.3935 12.6618 20.3167 12.6618 20.3167L12.9925 16.8025L12.9991 16.8064C13.0143 16.7705 13.0399 16.7413 13.0399 16.7413C13.0399 16.7413 19.3828 11.1033 19.5516 10.5114C19.5647 10.4656 19.5153 10.443 19.449 10.463C19.0281 10.6179 11.7384 15.2213 10.9209 15.7375L10.9186 15.739C10.8606 15.7565 10.7993 15.7602 10.7396 15.7498Z" fill="#8F8F8F"/>
</svg>
