<svg width="30" height="21" viewBox="0 0 30 21" fill="none" xmlns="http://www.w3.org/2000/svg">
<path d="M30 2.47059C28.8958 2.90294 27.7055 3.18706 26.4723 3.32294C27.7342 2.66824 28.7094 1.63059 29.1683 0.382941C27.978 1.00059 26.6587 1.43294 25.2677 1.68C24.1348 0.617647 22.543 0 20.7361 0C17.3662 0 14.6128 2.37176 14.6128 5.29941C14.6128 5.71941 14.6702 6.12706 14.7706 6.51C9.66539 6.28765 5.1195 4.17529 2.09369 0.975882C1.5631 1.75412 1.26195 2.66824 1.26195 3.63176C1.26195 5.47235 2.33748 7.10294 4.00096 8.02941C2.98279 8.02941 2.03633 7.78235 1.20459 7.41176C1.20459 7.41176 1.20459 7.41176 1.20459 7.44882C1.20459 10.0182 3.32696 12.1676 6.13767 12.6494C5.62142 12.7729 5.07648 12.8347 4.51721 12.8347C4.13002 12.8347 3.74283 12.7976 3.36998 12.7359C4.14436 14.8235 6.39579 16.38 9.10612 16.4171C7.01243 17.85 4.35947 18.69 1.46272 18.69C0.975143 18.69 0.487572 18.6653 0 18.6159C2.72467 20.1229 5.96558 21 9.43595 21C20.7361 21 26.9455 12.9212 26.9455 5.91706C26.9455 5.68235 26.9455 5.46 26.9312 5.22529C28.1358 4.48412 29.1683 3.54529 30 2.47059Z" fill="#8F8F8F"/>
</svg>
