<svg width="24" height="22" viewBox="0 0 24 22" fill="none" xmlns="http://www.w3.org/2000/svg">
<path d="M22.7368 18.3333V19.5556C22.7368 20.2039 22.4707 20.8256 21.9969 21.284C21.5231 21.7425 20.8805 22 20.2105 22H2.52632C1.12421 22 0 20.9 0 19.5556V2.44444C0 1.79614 0.266165 1.17438 0.739941 0.715961C1.21372 0.257539 1.8563 0 2.52632 0H20.2105C20.8805 0 21.5231 0.257539 21.9969 0.715961C22.4707 1.17438 22.7368 1.79614 22.7368 2.44444V3.66667H11.3684C9.96632 3.66667 8.8421 4.76667 8.8421 6.11111V15.8889C8.8421 16.5372 9.10827 17.1589 9.58205 17.6174C10.0558 18.0758 10.6984 18.3333 11.3684 18.3333M11.3684 15.8889H24V6.11111H11.3684M16.4211 12.8333C15.9185 12.8333 15.4366 12.6402 15.0813 12.2964C14.7259 11.9525 14.5263 11.4862 14.5263 11C14.5263 10.5138 14.7259 10.0475 15.0813 9.70364C15.4366 9.35982 15.9185 9.16667 16.4211 9.16667C16.9236 9.16667 17.4055 9.35982 17.7608 9.70364C18.1162 10.0475 18.3158 10.5138 18.3158 11C18.3158 11.4862 18.1162 11.9525 17.7608 12.2964C17.4055 12.6402 16.9236 12.8333 16.4211 12.8333Z" fill="url(#paint0_linear_15_484)"/>
<defs>
<linearGradient id="paint0_linear_15_484" x1="12" y1="0" x2="12" y2="22" gradientUnits="userSpaceOnUse">
<stop stop-color="#FEAA02"/>
<stop offset="1" stop-color="#E25410"/>
</linearGradient>
</defs>
</svg>
