<svg width="37" height="36" viewBox="0 0 37 36" fill="none" xmlns="http://www.w3.org/2000/svg">
<path d="M35.0526 30V32C35.0526 33.0609 34.6423 34.0783 33.9119 34.8284C33.1815 35.5786 32.1908 36 31.1579 36H3.89474C1.73316 36 0 34.2 0 32V4C0 2.93913 0.410337 1.92172 1.14074 1.17157C1.87115 0.421427 2.86179 0 3.89474 0H31.1579C32.1908 0 33.1815 0.421427 33.9119 1.17157C34.6423 1.92172 35.0526 2.93913 35.0526 4V6H17.5263C15.3647 6 13.6316 7.8 13.6316 10V26C13.6316 27.0609 14.0419 28.0783 14.7723 28.8284C15.5027 29.5786 16.4934 30 17.5263 30M17.5263 26H37V10H17.5263M25.3158 21C24.5411 21 23.7981 20.6839 23.2503 20.1213C22.7025 19.5587 22.3947 18.7956 22.3947 18C22.3947 17.2044 22.7025 16.4413 23.2503 15.8787C23.7981 15.3161 24.5411 15 25.3158 15C26.0905 15 26.8335 15.3161 27.3813 15.8787C27.9291 16.4413 28.2368 17.2044 28.2368 18C28.2368 18.7956 27.9291 19.5587 27.3813 20.1213C26.8335 20.6839 26.0905 21 25.3158 21Z" fill="white"/>
</svg>
